<?xml version="1.0" standalone="no"?>
<!DOCTYPE svg PUBLIC "-//W3C//DTD SVG 20010904//EN"
 "http://www.w3.org/TR/2001/REC-SVG-20010904/DTD/svg10.dtd">
<svg version="1.0" xmlns="http://www.w3.org/2000/svg"
 width="400.000000pt" height="400.000000pt" viewBox="0 0 400.000000 400.000000"
 preserveAspectRatio="xMidYMid meet">
<metadata>
Created by potrace 1.14, written by Peter Selinger 2001-2017
</metadata>
<g transform="translate(0.000000,400.000000) scale(0.100000,-0.100000)"
fill="#000000" stroke="none">
<path d="M1769 3448 c0 -7 -2 -22 -4 -33 -43 -245 -42 -296 5 -367 54 -81 159
-119 315 -114 151 5 250 56 301 157 22 44 46 144 58 239 2 19 7 56 11 83 l7
47 -95 0 -95 0 -11 -62 c-6 -35 -16 -94 -22 -133 -17 -116 -59 -164 -149 -173
-63 -6 -124 13 -145 45 -22 33 -22 82 1 198 3 11 7 44 10 73 l6 52 -96 0 c-70
0 -96 -3 -97 -12z"/>
<path d="M1967 2844 c-1 -1 -69 -4 -150 -8 -82 -3 -152 -8 -155 -10 -4 -2 -31
-7 -61 -10 -423 -50 -689 -280 -676 -585 3 -93 9 -121 40 -188 34 -74 79 -138
151 -213 35 -35 62 -65 61 -66 -1 -2 -22 -5 -47 -8 -25 -3 -70 -10 -100 -16
-30 -6 -71 -13 -90 -16 -60 -10 -212 -65 -290 -105 -192 -99 -289 -238 -296
-424 -6 -156 36 -267 140 -370 74 -75 178 -137 305 -182 81 -29 128 -42 254
-68 132 -28 313 -40 597 -40 298 1 353 4 575 41 55 9 249 66 312 92 l63 26 43
-22 c77 -38 180 -73 277 -94 125 -26 132 -27 293 -34 l139 -7 24 29 c13 16 23
36 24 45 0 8 4 19 9 25 11 10 35 55 116 209 31 61 73 138 92 173 l35 62 -79 1
c-134 1 -256 11 -346 27 l-39 7 42 45 c23 25 51 58 63 73 12 16 38 50 58 75
112 145 222 392 253 570 5 29 3 32 -22 33 -15 0 -170 1 -346 1 -338 1 -335 1
-336 -47 0 -39 -51 -211 -87 -295 -35 -82 -93 -183 -112 -194 -4 -3 -46 24
-92 60 -46 37 -99 78 -118 93 -19 14 -50 40 -71 56 -20 17 -49 39 -64 50 -15
11 -40 30 -54 43 -15 12 -42 32 -59 45 -18 12 -31 26 -30 32 2 5 45 17 97 28
258 50 504 168 609 290 100 118 133 281 85 424 -59 175 -254 288 -564 327 -84
11 -464 27 -473 20z m175 -404 c111 -20 171 -65 184 -138 8 -41 -8 -113 -33
-146 -21 -27 -84 -76 -138 -106 -63 -35 -216 -91 -228 -83 -47 27 -182 152
-224 205 -6 9 -16 31 -21 51 -29 104 29 181 156 211 74 17 225 20 304 6z
m-662 -902 c14 -13 52 -43 85 -68 33 -24 66 -50 75 -56 8 -7 78 -61 155 -120
77 -59 160 -123 184 -143 24 -19 71 -54 103 -78 57 -42 70 -59 46 -60 -14 0
-126 -13 -173 -19 -40 -5 -303 -5 -335 0 -14 3 -46 7 -71 10 -107 14 -205 55
-269 112 -51 46 -70 86 -77 156 -10 104 44 192 157 256 66 38 87 39 120 10z"/>
</g>
</svg>
