<svg width="62" height="60" viewBox="0 0 62 60" fill="none" xmlns="http://www.w3.org/2000/svg">
<g clip-path="url(#clip0_563_227)">
<path fill-rule="evenodd" clip-rule="evenodd" d="M31.1641 0.208984C22.8852 0.208984 21.8462 0.243561 18.5946 0.389277C15.3506 0.530053 13.1329 1.03141 11.1972 1.76493C9.16245 2.50841 7.31926 3.67497 5.79648 5.18308C4.24557 6.6633 3.04495 8.45424 2.27814 10.4313C1.52112 12.3182 1.00798 14.4718 0.860638 17.6257C0.715839 20.787 0.677734 21.7996 0.677734 29.8461C0.677734 37.8975 0.715839 38.9027 0.863178 42.064C1.01052 45.2179 1.52366 47.374 2.27814 49.2559C3.04315 51.234 4.24301 53.0259 5.79394 54.5066C7.31573 56.0153 9.15805 57.1827 11.1921 57.9272C13.1329 58.6608 15.3481 59.1621 18.5921 59.3054C21.8437 59.4486 22.8827 59.4832 31.1616 59.4832C39.4405 59.4832 40.477 59.4486 43.7286 59.3054C46.9726 59.1596 49.1903 58.6608 51.1311 57.9272C53.1644 57.1828 55.0059 56.0153 56.5267 54.5066C58.0776 53.0264 59.2783 51.2355 60.0451 49.2584C60.7945 47.3715 61.3076 45.2179 61.46 42.064C61.6074 38.9027 61.6455 37.895 61.6455 29.8461C61.6455 21.7971 61.6074 20.787 61.46 17.6257C61.3076 14.4718 60.7945 12.3157 60.0451 10.4338C59.2786 8.45582 58.0779 6.66402 56.5267 5.18308C55.0053 3.67459 53.1628 2.50794 51.1285 1.76493C49.1852 1.03141 46.9675 0.532523 43.7235 0.389277C40.4719 0.243561 39.4354 0.208984 31.154 0.208984L31.1641 0.208984ZM28.4308 5.55107L31.1616 5.55107C39.3008 5.55107 40.2661 5.57824 43.4822 5.72148C46.4543 5.85238 48.0649 6.33645 49.1395 6.74149C50.562 7.27743 51.5782 7.91957 52.6451 8.95687C53.7121 9.99417 54.3725 10.9821 54.9238 12.3651C55.3404 13.4098 55.8383 14.9781 55.9729 17.8678C56.1203 20.992 56.1508 21.9305 56.1508 29.8387C56.1508 37.7493 56.1203 38.6878 55.9729 41.8121C55.8383 44.7017 55.3404 46.27 54.9238 47.3122C54.4352 48.5992 53.6556 49.7631 52.6426 50.718C51.5756 51.7553 50.562 52.3974 49.1395 52.9334C48.0675 53.3409 46.4518 53.8225 43.4796 53.9559C40.2661 54.0966 39.3008 54.1287 31.1616 54.1287C23.0224 54.1287 22.0571 54.0966 18.8436 53.9559C15.8714 53.8225 14.2583 53.3384 13.1837 52.9334C11.8596 52.4589 10.6617 51.7019 9.6781 50.718C8.6654 49.7618 7.8859 48.5972 7.39689 47.3097C6.98027 46.2675 6.48237 44.6992 6.34773 41.8096C6.2004 38.6853 6.16991 37.7468 6.16991 29.8313C6.16991 21.9182 6.2004 20.9846 6.34773 17.8603C6.48237 14.9707 6.98027 13.4024 7.39689 12.3577C7.94814 10.9747 8.61116 9.98676 9.6781 8.94946C10.745 7.91216 11.7612 7.27002 13.1837 6.73162C14.2583 6.32411 15.8714 5.8425 18.8436 5.70914C21.6557 5.58565 22.7455 5.5486 28.4282 5.54366L28.4282 5.55107L28.4308 5.55107Z" fill="white"/>
<path d="M27.6979 29.9134C29.1459 29.1513 30.0604 27.7795 30.0604 26.0013C30.0604 23.2324 27.7741 21.3779 23.3285 21.3779H14.6406V39.1602H23.8366C28.5108 39.1602 30.9495 37.382 30.9495 34.3082C30.9495 32.0727 29.6793 30.5485 27.6979 29.9134ZM22.8205 24.4771C24.8273 24.4771 25.9197 25.163 25.9197 26.5602C25.9197 27.9574 24.8273 28.6687 22.8205 28.6687H18.7305V24.4771H22.8205ZM23.5318 36.061H18.7305V31.6662H23.5318C25.6656 31.6662 26.8088 32.3775 26.8088 33.8763C26.8088 35.4005 25.6656 36.061 23.5318 36.061Z" fill="white"/>
<path d="M47.1732 32.3775C47.1732 27.9828 44.074 25.29 40.0603 25.29C35.8942 25.29 32.7696 28.2368 32.7696 32.3267C32.7696 36.3912 35.8434 39.3634 40.5684 39.3634C43.0325 39.3634 44.9377 38.6013 46.2079 37.1533L44.0994 34.867C43.1595 35.7562 42.118 36.188 40.67 36.188C38.5869 36.188 37.139 35.1465 36.7579 33.4445H47.097C47.1224 33.1142 47.1732 32.6824 47.1732 32.3775ZM40.0857 28.2876C41.864 28.2876 43.1595 29.4054 43.439 31.1328H36.7071C36.9865 29.3799 38.2821 28.2876 40.0857 28.2876Z" fill="white"/>
</g>
<defs>
<clipPath id="clip0_563_227">
<rect width="60.9677" height="59.2742" fill="white" transform="translate(0.677734 0.208984)"/>
</clipPath>
</defs>
</svg>
