<svg width="62" height="60" viewBox="0 0 62 60" fill="none" xmlns="http://www.w3.org/2000/svg">
<g clip-path="url(#clip0_563_224)">
<path fill-rule="evenodd" clip-rule="evenodd" d="M30.8419 0.208984C22.563 0.208984 21.524 0.243561 18.2724 0.389277C15.0284 0.530053 12.8107 1.03141 10.8749 1.76493C8.84018 2.50841 6.99699 3.67497 5.47422 5.18308C3.92331 6.6633 2.72269 8.45424 1.95587 10.4313C1.19886 12.3182 0.685711 14.4718 0.538372 17.6257C0.393574 20.787 0.355469 21.7996 0.355469 29.8461C0.355469 37.8975 0.393574 38.9027 0.540912 42.064C0.688251 45.2179 1.2014 47.374 1.95587 49.2559C2.72088 51.234 3.92074 53.0259 5.47168 54.5066C6.99347 56.0153 8.83578 57.1827 10.8699 57.9272C12.8107 58.6607 15.0258 59.1621 18.2698 59.3054C21.5214 59.4486 22.5604 59.4832 30.8393 59.4832C39.1183 59.4832 40.1547 59.4486 43.4063 59.3054C46.6503 59.1596 48.868 58.6607 50.8088 57.9272C52.8422 57.1828 54.6837 56.0153 56.2045 54.5066C57.7554 53.0264 58.956 51.2355 59.7228 49.2584C60.4722 47.3715 60.9853 45.2179 61.1378 42.064C61.2851 38.9027 61.3232 37.895 61.3232 29.8461C61.3232 21.7971 61.2851 20.787 61.1378 17.6257C60.9853 14.4718 60.4722 12.3157 59.7228 10.4338C58.9563 8.45582 57.7557 6.66402 56.2045 5.18308C54.683 3.67459 52.8405 2.50794 50.8063 1.76493C48.8629 1.03141 46.6452 0.532523 43.4012 0.389277C40.1496 0.243561 39.1132 0.208984 30.8317 0.208984L30.8419 0.208984ZM28.1085 5.55107L30.8393 5.55107C38.9785 5.55107 39.9439 5.57824 43.1599 5.72148C46.1321 5.85238 47.7426 6.33645 48.8172 6.74149C50.2398 7.27743 51.2559 7.91957 52.3228 8.95687C53.3898 9.99417 54.0503 10.9821 54.6015 12.3651C55.0181 13.4098 55.516 14.9781 55.6507 17.8678C55.798 20.992 55.8285 21.9305 55.8285 29.8387C55.8285 37.7493 55.798 38.6878 55.6507 41.8121C55.516 44.7017 55.0181 46.27 54.6015 47.3122C54.1129 48.5992 53.3334 49.7631 52.3203 50.718C51.2534 51.7553 50.2398 52.3974 48.8172 52.9334C47.7452 53.3409 46.1295 53.8225 43.1574 53.9559C39.9439 54.0966 38.9785 54.1287 30.8393 54.1287C22.7001 54.1287 21.7348 54.0966 18.5213 53.9559C15.5491 53.8225 13.936 53.3384 12.8615 52.9334C11.5373 52.4589 10.3394 51.7019 9.35583 50.718C8.34313 49.7618 7.56364 48.5972 7.07462 47.3097C6.65801 46.2675 6.16011 44.6992 6.02547 41.8096C5.87813 38.6853 5.84765 37.7468 5.84765 29.8313C5.84765 21.9182 5.87813 20.9846 6.02547 17.8603C6.16011 14.9707 6.65801 13.4024 7.07462 12.3577C7.62587 10.9747 8.2889 9.98676 9.35583 8.94946C10.4228 7.91216 11.4389 7.27002 12.8615 6.73162C13.936 6.32411 15.5491 5.8425 18.5213 5.70914C21.3335 5.58565 22.4233 5.5486 28.106 5.54366L28.106 5.55107L28.1085 5.55107ZM47.1152 10.4708C46.145 10.4708 45.2146 10.8455 44.5285 11.5125C43.8425 12.1795 43.4571 13.0841 43.4571 14.0273C43.4571 14.9705 43.8425 15.8751 44.5285 16.5421C45.2146 17.209 46.145 17.5837 47.1152 17.5837C48.0854 17.5837 49.0158 17.209 49.7018 16.5421C50.3878 15.8751 50.7733 14.9705 50.7733 14.0273C50.7733 13.0841 50.3878 12.1795 49.7018 11.5125C49.0158 10.8455 48.0854 10.4708 47.1152 10.4708V10.4708ZM30.8393 14.6274C28.7667 14.6019 26.7096 14.9768 24.7872 15.7303C22.8648 16.4838 21.1154 17.601 19.6405 19.0169C18.1657 20.4329 16.9947 22.1195 16.1956 23.9788C15.3964 25.8382 14.985 27.8334 14.9852 29.8486C14.9854 31.8637 15.3971 33.8588 16.1966 35.7181C16.996 37.5773 18.1673 39.2638 19.6424 40.6795C21.1174 42.0952 22.867 43.2121 24.7895 43.9653C26.7121 44.7185 28.7693 45.093 30.8419 45.0672C34.9592 45.0159 38.89 43.3896 41.7828 40.5406C44.6756 37.6917 46.2975 33.8494 46.2972 29.8461C46.2969 25.8428 44.6743 22.0008 41.781 19.1523C38.8878 16.3038 34.9567 14.6781 30.8393 14.6274ZM30.8393 19.967C33.5343 19.967 36.1188 21.0079 38.0245 22.8605C39.9301 24.7132 41.0006 27.226 41.0006 29.8461C41.0006 32.4662 39.9301 34.9789 38.0245 36.8316C36.1188 38.6843 33.5343 39.7251 30.8393 39.7251C28.1444 39.7251 25.5598 38.6843 23.6542 36.8316C21.7486 34.9789 20.678 32.4662 20.678 29.8461C20.678 27.226 21.7486 24.7132 23.6542 22.8605C25.5598 21.0079 28.1444 19.967 30.8393 19.967V19.967Z" fill="white"/>
</g>
<defs>
<clipPath id="clip0_563_224">
<rect width="60.9677" height="59.2742" fill="white" transform="translate(0.355469 0.208984)"/>
</clipPath>
</defs>
</svg>
