<svg width="331" height="293" viewBox="0 0 331 293" fill="none" xmlns="http://www.w3.org/2000/svg">
<path d="M132.322 118.861C132.322 109.9 138.595 100.939 165.178 100.939C190.567 100.939 198.035 108.406 198.035 119.458C198.035 132.899 182.204 142.458 158.308 149.925C139.491 135.886 132.322 128.12 132.322 118.861ZM142.478 247.3C101.556 247.3 84.8294 234.456 84.8294 216.235C84.8294 201.898 98.2707 193.236 109.024 189.353L180.113 244.014C168.464 246.105 155.919 247.3 142.478 247.3ZM330.058 238.04C310.643 238.04 296.007 237.144 283.76 234.456C307.357 210.56 321.993 182.184 325.876 154.704H255.982C253.592 168.743 249.112 189.95 234.774 209.365L184.594 169.938C245.826 159.483 267.631 136.484 267.631 111.095C267.631 84.8095 251.203 61.81 175.931 61.81H161.295C70.1934 61.81 57.0508 100.043 57.0508 121.848C57.0508 138.873 66.0116 154.704 83.6346 169.639C29.5708 175.613 0 195.327 0 229.079C0 264.027 31.6617 293 128.14 293H134.712C176.529 293 204.009 285.831 225.216 276.572C243.437 286.727 264.345 292.104 301.085 292.104L330.058 238.04Z" fill="white"/>
<path d="M138.396 23.8359C136.723 34.7084 140.417 52.6898 170.107 52.6898H172.826C200.355 52.6898 205.931 35.2659 207.604 24.1146L211.437 0H192.062L188.437 23.1389C187.322 29.5509 183.977 37.1477 171.78 37.1477H171.71C158.886 37.1477 156.796 29.5509 157.911 22.8601L161.535 0H142.16L138.396 23.8359Z" fill="white"/>
</svg>
